<?xml version="1.0" encoding="utf-8"?>
<svg viewBox="0 0 500 500" xmlns="http://www.w3.org/2000/svg">
  <path style="opacity: 1; fill: rgb(250, 187, 0); fill-opacity: 1; stroke: none; stroke-width: 0.619547; stroke-linecap: square; stroke-linejoin: round; stroke-miterlimit: 4; stroke-dasharray: none; stroke-dashoffset: 0; stroke-opacity: 1;" d="M 110.069 4.475 L 389.932 4.475 C 448.429 4.475 495.524 51.571 495.524 110.07 L 495.524 389.93 C 495.524 448.429 448.429 495.524 389.932 495.524 L 110.069 495.524 C 51.571 495.524 4.477 448.429 4.477 389.93 L 4.477 110.07 C 4.477 51.571 51.571 4.475 110.069 4.475 Z" id="rect11849"/>
  <path id="path11879" d="M 247.498 416.596 L 247.498 401.217 L 239.586 400.392 C 224.94 398.867 212.781 394.685 201.415 387.261 C 182.308 374.781 169.504 356.3 164.218 333.572 C 163.27 329.491 162.988 324.327 162.759 306.782 L 162.476 285.045 L 177.609 285.045 L 192.741 285.045 L 193.064 303.748 C 193.315 318.359 193.645 323.542 194.566 327.423 C 194.566 383.597 301.077 377.684 301.077 326.496 L 301.258 228.264 L 301.439 130.034 L 247.509 130.034 L 193.577 130.034 L 193.577 114.533 L 193.577 99.029 L 247.495 99.029 L 367.848 99.029 L 367.848 83.53 L 367.848 68.029 L 231.653 68.029 L 161.893 68.029 L 162.066 114.363 L 162.241 160.7 L 216.334 160.871 L 270.429 161.045 L 270.252 241.412 L 270.075 321.778 C 270.075 345.615 224.919 343.313 224.919 322.452 L 224.728 288.248 L 224.536 254.045 L 178.055 254.045 L 131.576 254.045 L 131.576 290.108 C 131.576 328.238 131.81 331.964 135.001 344.547 C 147.648 394.395 192.444 430.294 243.96 431.866 L 247.498 431.973 Z" style="fill: rgb(0, 0, 0); fill-opacity: 1; stroke-width: 0.0566752;"/>
  <path id="rect11881" d="M 335.526 68.027 L 368.423 68.027 L 368.423 296.591 L 335.526 296.591 Z" style="opacity: 1; fill: rgb(0, 0, 0); fill-opacity: 1; stroke: none; stroke-width: 2.1931; stroke-linecap: square; stroke-linejoin: miter; stroke-miterlimit: 4; stroke-dasharray: none; stroke-opacity: 1;"/>
</svg>